<?xml version="1.0" encoding="iso-8859-1"?><!DOCTYPE svg PUBLIC "-//W3C//DTD SVG 1.1//EN" "http://www.w3.org/Graphics/SVG/1.1/DTD/svg11.dtd"><svg viewBox="0 0 502.66 502.66" xmlns="http://www.w3.org/2000/svg" xmlns:xlink="http://www.w3.org/1999/xlink"><style>:root>svg{display:none}:root>svg:target{display:block}</style><svg viewBox="0 0 254.498 254.498" id="arrow-1" xmlns="http://www.w3.org/2000/svg"><path d="M189.917 98.443c-18.01-33.989-38.32-66.508-60.711-97.781-.62-.866-1.762-.897-2.377 0-5.707 8.332-11.286 16.77-16.883 25.193a.587.587 0 00-.202.302c-2.379 3.581-4.816 7.117-7.178 10.711-.478-.002-.956-.01-1.434-.012-.831-.004-.824 1.249 0 1.285.194.009.389.015.582.024-2.661 4.056-5.357 8.089-7.984 12.168l-.119.002c-.479.011-.602.514-.407.821-7.376 11.476-14.628 23.029-21.57 34.76-.391.028-.783.049-1.174.077-.683.049-.694 1.111 0 1.074.173-.009.346-.021.519-.031-1.768 2.998-3.538 5.995-5.27 9.013-.124.001-.247-.002-.371-.001-.933.007-1.201 1.187-.572 1.692-.326.78.784 1.402 1.276.648.036-.054.069-.11.105-.164l.562.136a.397.397 0 00.419-.145c9.703 1.387 19.799 1.308 29.547.751-10.04 48.366-14.623 98.57-19.984 147.61-.127 1.158 1.303 1.713 2.176 1.249 11.31-6.004 34.159-24.141 47.043-19.325 4.964 1.855 11.402 8.838 15.597 11.82 6.962 4.951 14.141 9.531 21.433 13.974.957.583 2.305-.164 2.267-1.301-1.683-51.141-5.021-102.135-9.563-153.098 10.602 1.544 22.159 2.175 32.744.778.392-.052.665-.244.853-.489.623-.26 1.086-.967.676-1.741zm-35.087-.093c-.057.002-.089.049-.14.064-.891-.362-2.073.041-1.96 1.247 2.991 32.147 5.246 64.365 7.004 96.602.425 7.782.815 15.567 1.168 23.353.304 6.701 2.677 16.898.95 23.363-2.418 9.05-7.188 2.76-13.584-1.581-8.727-5.924-17.067-12.349-25.22-19.037-.53-.435-1.156-.559-1.777-.229l-21.925 11.607c-1.576.834-14.618 9.626-16.446 8.702-1.764-.891-2.457-4.084-2.529-8.393 4.262.539 8.583.244 12.808-.454.547-.09.425-1.027-.132-.975-4.227.398-8.441.407-12.674.525.008-3.043.299-6.583.741-10.263 9-.484 18.005-.986 26.968-1.948.732-.079.768-1.205 0-1.172-8.967.394-17.908 1.249-26.84 2.12.462-3.657 1.061-7.402 1.668-10.927.048.026.067.079.129.089 5.24.847 10.468 1.367 15.782 1.236.849-.021.849-1.291 0-1.318-5.223-.164-10.437-.428-15.622-1.1-.046-.006-.069.031-.11.036.677-3.875 1.347-7.399 1.841-10.125 6.749.69 13.512.508 20.25-.186.949-.098.989-1.562 0-1.513-6.663.328-13.306.252-19.97.124.186-1.07.332-1.971.415-2.627.291-2.311.607-4.62.913-6.93 3.283.53 6.658.76 9.97.94.726.04.687-1.021 0-1.107-3.246-.402-6.56-.773-9.839-.831.45-3.365.947-6.727 1.421-10.091 5.688.58 11.373.814 17.093.524.791-.04.8-1.261 0-1.237-5.658.17-11.298.055-16.937-.391.518-3.668 1.059-7.335 1.592-11.003 5.508.227 11.003.661 16.504 1.02.613.04.767-.989.147-1.087-5.471-.863-10.947-1.139-16.469-1.188.526-3.613 1.054-7.228 1.582-10.841 6.256.491 12.521.901 18.789 1.183.968.044.954-1.43 0-1.497a563.234 563.234 0 00-18.601-.977c.409-2.805.81-5.612 1.213-8.418 14.339.542 28.584 1.756 42.848 3.375.867.098 1.077-1.396.208-1.534-14.18-2.258-28.484-3.263-42.832-3.395.337-2.358.638-4.718.968-7.076 7.326.051 14.664.208 21.985-.073.784-.03.788-1.199 0-1.22-7.273-.193-14.558.045-21.833.184.398-2.858.761-5.718 1.144-8.577.113.114.245.217.436.242 5.753.743 11.57.976 17.358.58.951-.065.974-1.499 0-1.497-5.804.008-11.568-.13-17.358-.531-.13-.009-.195.061-.288.1.333-2.496.642-4.994.962-7.492 3.825.243 7.646.484 11.478.609.789.026.78-1.175 0-1.22-3.781-.22-7.561-.324-11.345-.428.742-5.849 1.451-11.7 2.04-17.559.444-.882.064-2.165-1.208-2.112-10.037.421-20.005.029-30.022.041 1.975-3.042 3.916-6.107 5.875-9.16 7.507-.404 15.01-.821 22.512-1.32.799-.053.809-1.3 0-1.253-7.264.42-14.521.92-21.779 1.43 2.206-3.444 4.423-6.882 6.625-10.329.043.015.064.055.115.059 8.48.723 16.956 1.403 25.45 1.946.777.05.766-1.142 0-1.204-8.32-.677-16.643-1.219-24.975-1.721 2.234-3.497 4.484-6.983 6.721-10.479 7.814.437 15.636.745 23.459.935.987.024.981-1.486 0-1.53a747.73 747.73 0 00-22.66-.652c2.176-3.397 4.336-6.804 6.534-10.187.212-.326.458-.725.72-1.155 6.873.143 13.742.216 20.617.125.89-.012.891-1.371 0-1.383-6.646-.09-13.285-.023-19.928.107 1.701-2.88 4.129-7.218 6.914-12.035 6.84.304 13.692.597 20.535.546.938-.007.925-1.396 0-1.448-6.568-.374-13.16-.428-19.742-.463a364.857 364.857 0 015.815-9.684c.018.003.024.02.042.022 5.783.503 11.551.997 17.352 1.25 1.008.044.972-1.449 0-1.546-5.486-.545-10.974-.871-16.476-1.181 6.218-9.805 12.716-18.413 16.798-18.452 8.804-.084 26.222 35.248 30.799 42.605 9.858 15.845 19.19 32.01 28.137 48.385-10.585-.676-21.605-.345-32.174.066z"/><path d="M109.812 106.242c-3.077-.108-6.107-.325-9.116-1.015-.743-.17-1.057.943-.316 1.145 3.083.843 6.231 1.352 9.432 1.156.821-.051.832-1.257 0-1.286zM131.798 15.314c-2.895-.076-5.784-.04-8.679-.008-.963.011-.965 1.487 0 1.497 2.895.032 5.784.068 8.679-.008.953-.025.954-1.456 0-1.481z"/></svg><svg viewBox="0 0 74.321 74.321" id="arrow-btn" xmlns="http://www.w3.org/2000/svg"><path d="M68.412 9.371c-.029-.14-.042-.284-.075-.423l-.068.017v-.001c-1.109-4.563-4.093-7.397-7.788-7.397-1.83 0-2.719-.04-3.661-.083-.922-.042-1.876-.086-3.752-.086-1.851 0-2.776-.005-3.701-.01-.928-.005-1.856-.01-3.711-.01-1.768 0-2.627-.146-3.537-.3-.951-.161-1.935-.327-3.871-.327-1.865 0-2.797.023-3.729.047-.92.022-1.84.046-3.68.046-1.88 0-2.836.055-3.761.107-.938.053-1.823.104-3.647.104-1.928 0-2.908.152-3.856.299-.913.142-1.775.275-3.549.275-1.756 0-2.609-.165-3.513-.339-.957-.185-1.945-.375-3.892-.375-2.277 0-4.274 1.534-6.107 4.689l-.122.208C1.327 7.645 0 9.927 0 12.676c0 1.854.091 2.797.178 3.708.087.904.169 1.759.169 3.518 0 1.843.068 2.779.133 3.685.066.91.128 1.771.128 3.541 0 1.755-.085 2.608-.175 3.511a32.198 32.198 0 00-.185 3.71c0 1.85.085 2.791.166 3.7.081.906.158 1.762.158 3.523 0 1.76-.077 2.615-.159 3.521-.081.91-.166 1.851-.166 3.701 0 1.788-.03 2.682-.059 3.576-.03.91-.061 1.821-.061 3.643 0 2.724 1.157 5.017 2.241 6.952 1.412 2.522 3.309 3.914 5.559 4.132.068.053.157.104.255.147l-.042.274c.147.022.302.025.448.026 1.17 3.559 3.675 6.025 6.58 6.025H67.03c4.028 0 7.292-4.714 7.292-10.534V19.698c-.001-5.138-2.545-9.399-5.91-10.327zM4.113 61.988c-1.005-1.795-1.986-3.733-1.986-5.976 0-1.788.03-2.682.06-3.576.03-.91.061-1.821.061-3.642 0-1.761.077-2.616.159-3.522.082-.91.166-1.851.166-3.7 0-1.851-.084-2.792-.166-3.701-.081-.906-.158-1.762-.158-3.522 0-1.755.086-2.608.175-3.511.091-.912.185-1.854.185-3.71 0-1.843-.068-2.779-.133-3.686-.066-.91-.128-1.77-.128-3.541 0-1.854-.091-2.798-.178-3.709A30.978 30.978 0 012 12.676c0-2.21 1.127-4.148 2.121-5.857l.122-.21c1.463-2.52 2.854-3.694 4.377-3.694 1.756 0 2.609.165 3.513.339.957.185 1.945.375 3.892.375 1.928 0 2.908-.152 3.856-.299.913-.142 1.775-.275 3.549-.275 1.88 0 2.836-.055 3.76-.107.938-.053 1.824-.104 3.647-.104 1.865 0 2.798-.023 3.73-.047.92-.022 1.84-.046 3.68-.046 1.768 0 2.627.145 3.537.3.951.16 1.935.327 3.871.327 1.85 0 2.775.005 3.701.01.928.005 1.856.01 3.712.01 1.831 0 2.72.041 3.661.083.922.042 1.875.086 3.751.086 2.725 0 4.964 2.249 5.844 5.867.238.986.358 2.077.358 3.242 0 1.787-.031 2.681-.062 3.575-.031.91-.063 1.821-.063 3.644 0 1.829.045 2.759.088 3.658.044.916.086 1.782.086 3.563 0 1.794-.021 2.691-.043 3.587-.022.909-.044 1.818-.044 3.636 0 1.355.057 2.224.128 2.95v15.679c-.117.747-.212 1.639-.212 3.045 0 2.449-.498 4.6-1.439 6.219-.492.847-1.033 1.559-1.601 2.122-.902.758-1.938 1.193-3.042 1.193H34.354c-.85-.15-1.816-.286-3.502-.286-1.895 0-2.858.083-3.79.163-.553.048-1.092.094-1.814.123h-3.641c-.708-.028-1.241-.072-1.787-.117-.931-.076-1.895-.156-3.789-.156-1.862 0-2.793.017-3.724.033-.865.016-1.73.031-3.357.033a1.363 1.363 0 00-.572-.211c-1.746-.108-3.141-1.135-4.265-3.141z"/><path d="M26.197 31.067c1.38.37 2.746.468 4.13.497.011.101.031.209.081.318.177.38.335.766.481 1.159-.041 6.124-.174 12.243-.189 18.367-.003 1.417.234 2.256.694 2.768-.175.373-.129.838.336 1.057.521.245 1.069.372 1.628.436.462.255 1.086.287 1.917.043.428-.013.852-.033 1.268-.037.676-.004.903-.724.707-1.237.761-1.325.403-3.48.26-4.861-.284-2.729-.332-5.474-.364-8.218.028-.614.042-1.232.057-1.847.188-2.457.266-4.867.25-7.525 1.289.123 2.582.204 3.899.099a.78.78 0 00.626-.402c.472-.053.889-.453.659-1.051-1.013-2.639-2.537-5.048-3.76-7.584-1.226-2.532-2.513-5.052-4.538-6.955-.511-.479-1.162-.125-1.35.39a.75.75 0 00-.344.358c-2.136 4.539-5.462 8.306-7.037 13.16-.144.446.181.958.589 1.065zm8.361.637c.198.013.397.031.594.05a18.904 18.904 0 00-.666 1.578 49.35 49.35 0 00.072-1.628zm.018 10.56c.048.004.095.008.141 0-.074 2.119-.029 4.249.018 6.37-.087.635-.2 1.248-.346 1.837.105-2.672.056-5.465.187-8.207z"/></svg><svg viewBox="0 0 502.664 502.664" id="icon" xmlns="http://www.w3.org/2000/svg"><g fill="#010002"><path d="M153.821 358.226L0 274.337v-46.463l153.821-83.414v54.574L46.636 250.523l107.185 53.431v54.272zM180.094 387.584L282.103 115.08h32.227L212.084 387.584h-31.99zM348.843 358.226v-54.272l107.164-52.999-107.164-52.59v-53.927l153.821 83.522v46.183l-153.821 84.083z"/></g></svg></svg>